<svg width="180" height="180" viewBox="0 0 180 180" fill="none" xmlns="http://www.w3.org/2000/svg">
<path d="M120.5 174.5C142.5 167 171 142.5 176.862 113.558C182.378 93.221 180.583 71.5936 171.79 52.4444C162.997 33.2951 147.764 17.8381 128.745 8.76687C109.726 -0.304372 88.1271 -2.41474 67.712 2.80352C47.2969 8.02178 29.3599 20.2378 17.0267 37.3229C4.69354 54.408 -1.2539 75.2789 0.220776 96.2987C1.69546 117.319 10.4988 137.155 25.0967 152.35C39.6945 167.546 59.1615 177.138 80.1052 179.454L92.5 155.5C78.1787 153.916 55.6013 143.026 45.6193 132.635C35.6373 122.244 29.6176 108.68 28.6092 94.3071C27.6008 79.9338 31.6677 65.6623 40.1011 53.9796C48.5345 42.2968 60.7998 33.9435 74.7596 30.3753C88.7194 26.8071 103.489 28.2501 116.494 34.453C129.499 40.6559 139.915 51.2254 145.928 64.3196C151.94 77.4138 153.168 92.2025 149.396 106.109C145.625 120.015 137.093 132.157 125.289 140.419C125.289 140.419 127.295 151.67 127.5 159C127.549 160.757 127.803 161.769 127.5 163.5C127.138 165.572 126.524 166.663 125.5 168.5C124.015 171.164 120.5 174.5 120.5 174.5Z" fill="url(#paint0_linear_4_37)"/>
<path d="M69 98.3374H59V74.3374C59 74.3374 60.2936 68.3338 62 64.8374C63.5439 61.6739 64.6297 59.9399 67 57.3374C69.8138 54.2479 71.8483 52.8689 75.5 50.8374C79.4945 48.6152 81.9711 47.9563 86.5 47.3373C89.402 46.9407 90 46.8373 94 47.3373C98 47.8373 100.5 48.8373 104 50.8374C107.5 52.8374 108.919 53.4433 111.5 55.8374C114.678 58.786 116.087 60.9467 118 64.8374C119.717 68.3288 121 74.3374 121 74.3374V98.3374H110.5V74.3374C110.5 74.3374 108.171 68.0689 105.5 64.8374C103.651 62.5999 102.468 61.3662 100 59.8374C97.8422 58.5004 96.4818 57.8707 94 57.3374C91.1364 56.722 89.376 56.7829 86.5 57.3374C83.8295 57.8523 82.3582 58.4825 80 59.8374C77.3553 61.3569 75.9917 62.5274 74 64.8374C71.2623 68.0126 69 74.3374 69 74.3374V98.3374Z" fill="white" stroke="white"/>
<path d="M93 154.5L80 179C80 179 65.4572 176.982 57 173.5C49.6503 170.474 45.0942 167.938 38.5 163.5C32.1739 159.243 29.2325 156.047 24 150.5C19.6048 145.841 14 137.5 14 137.5C14 137.5 16.1005 124.837 18.5 117C20.8354 109.372 28 92.5 28 92.5L29 101.5L31.5 110.5C31.5 110.5 33 115 35.5 119.5C37.6624 123.392 42 129 42 129C42 129 47.113 134.663 50.5 137.5C63.4294 148.33 93 154.5 93 154.5Z" fill="#35476F" stroke="#35476F"/>
<rect x="51" y="98" width="77" height="70" rx="7" fill="url(#paint1_linear_4_37)"/>
<path d="M82.4998 151.5L85.9998 136C85.9998 136 83.9275 134.71 82.9998 133.5C82.2029 132.46 81.8444 131.764 81.4998 130.5C81.0374 128.805 81.024 127.692 81.4998 126C81.926 124.485 82.4853 123.704 83.5 122.5C84.483 121.334 85 121 86.5 120.5C89.0546 119.648 90.1541 119.552 93 120.5C94.5002 121 94.5168 121.334 95.4998 122.5C96.5145 123.704 97.0736 124.485 97.4998 126C97.9756 127.692 97.9622 128.805 97.4998 130.5C97.1551 131.764 96.7611 132.434 95.9998 133.5C95.1973 134.624 93.4998 136 93.4998 136L97.4998 151.5H82.4998Z" fill="white" stroke="white"/>
<defs>
<linearGradient id="paint0_linear_4_37" x1="156" y1="41.5" x2="-1.68461" y2="83.7062" gradientUnits="userSpaceOnUse">
<stop stop-color="#11BEB2"/>
<stop offset="0.622051" stop-color="#12ADB1"/>
<stop offset="1" stop-color="#0E9CB2"/>
</linearGradient>
<linearGradient id="paint1_linear_4_37" x1="51" y1="133" x2="127" y2="133" gradientUnits="userSpaceOnUse">
<stop stop-color="#0E9CB0"/>
<stop offset="0.5" stop-color="#13A9B1"/>
<stop offset="1" stop-color="#11C2B0"/>
</linearGradient>
</defs>
</svg>
